<svg width="189" height="34" viewBox="0 0 189 34" fill="none" xmlns="http://www.w3.org/2000/svg">
<path d="M7.584 26.168C6.352 26.168 5.248 25.968 4.272 25.568C3.296 25.168 2.512 24.576 1.92 23.792C1.344 23.008 1.04 22.064 1.008 20.96H5.376C5.44 21.584 5.656 22.064 6.024 22.4C6.392 22.72 6.872 22.88 7.464 22.88C8.072 22.88 8.552 22.744 8.904 22.472C9.256 22.184 9.432 21.792 9.432 21.296C9.432 20.88 9.288 20.536 9 20.264C8.728 19.992 8.384 19.768 7.968 19.592C7.568 19.416 6.992 19.216 6.24 18.992C5.152 18.656 4.264 18.32 3.576 17.984C2.888 17.648 2.296 17.152 1.8 16.496C1.304 15.84 1.056 14.984 1.056 13.928C1.056 12.36 1.624 11.136 2.76 10.256C3.896 9.36 5.376 8.912 7.2 8.912C9.056 8.912 10.552 9.36 11.688 10.256C12.824 11.136 13.432 12.368 13.512 13.952H9.072C9.04 13.408 8.84 12.984 8.472 12.68C8.104 12.36 7.632 12.2 7.056 12.2C6.56 12.2 6.16 12.336 5.856 12.608C5.552 12.864 5.4 13.24 5.4 13.736C5.4 14.28 5.656 14.704 6.168 15.008C6.68 15.312 7.48 15.64 8.568 15.992C9.656 16.36 10.536 16.712 11.208 17.048C11.896 17.384 12.488 17.872 12.984 18.512C13.48 19.152 13.728 19.976 13.728 20.984C13.728 21.944 13.48 22.816 12.984 23.6C12.504 24.384 11.8 25.008 10.872 25.472C9.944 25.936 8.848 26.168 7.584 26.168ZM20.3576 12.44V15.848H25.8536V19.016H20.3576V22.712H26.5736V26H16.2536V9.152H26.5736V12.44H20.3576ZM39.726 23.024H33.438L32.43 26H28.134L34.23 9.152H38.982L45.078 26H40.734L39.726 23.024ZM38.67 19.856L36.582 13.688L34.518 19.856H38.67ZM55.5253 26L52.0213 19.64H51.0373V26H46.9333V9.152H53.8213C55.1493 9.152 56.2773 9.384 57.2053 9.848C58.1493 10.312 58.8533 10.952 59.3173 11.768C59.7813 12.568 60.0133 13.464 60.0133 14.456C60.0133 15.576 59.6933 16.576 59.0533 17.456C58.4293 18.336 57.5013 18.96 56.2693 19.328L60.1573 26H55.5253ZM51.0373 16.736H53.5813C54.3333 16.736 54.8933 16.552 55.2613 16.184C55.6453 15.816 55.8373 15.296 55.8373 14.624C55.8373 13.984 55.6453 13.48 55.2613 13.112C54.8933 12.744 54.3333 12.56 53.5813 12.56H51.0373V16.736ZM61.8936 17.552C61.8936 15.888 62.2536 14.408 62.9736 13.112C63.6936 11.8 64.6936 10.784 65.9736 10.064C67.2696 9.328 68.7336 8.96 70.3656 8.96C72.3656 8.96 74.0776 9.488 75.5016 10.544C76.9256 11.6 77.8776 13.04 78.3576 14.864H73.8456C73.5096 14.16 73.0296 13.624 72.4056 13.256C71.7976 12.888 71.1016 12.704 70.3176 12.704C69.0536 12.704 68.0296 13.144 67.2456 14.024C66.4616 14.904 66.0696 16.08 66.0696 17.552C66.0696 19.024 66.4616 20.2 67.2456 21.08C68.0296 21.96 69.0536 22.4 70.3176 22.4C71.1016 22.4 71.7976 22.216 72.4056 21.848C73.0296 21.48 73.5096 20.944 73.8456 20.24H78.3576C77.8776 22.064 76.9256 23.504 75.5016 24.56C74.0776 25.6 72.3656 26.12 70.3656 26.12C68.7336 26.12 67.2696 25.76 65.9736 25.04C64.6936 24.304 63.6936 23.288 62.9736 21.992C62.2536 20.696 61.8936 19.216 61.8936 17.552ZM95.4628 9.152V26H91.3588V19.064H84.9748V26H80.8708V9.152H84.9748V15.752H91.3588V9.152H95.4628Z" fill="white"/>
<path d="M104.591 9.152V12.44H100.127V26H96.0233V12.44H91.5593V9.152H104.591ZM121.243 9.152V26H117.139V19.064H110.755V26H106.651V9.152H110.755V15.752H117.139V9.152H121.243ZM128.31 9.152V26H124.206V9.152H128.31ZM146.356 26H142.252L135.388 15.608V26H131.284V9.152H135.388L142.252 19.592V9.152H146.356V26ZM160.515 14.48C160.211 13.92 159.771 13.496 159.195 13.208C158.635 12.904 157.971 12.752 157.203 12.752C155.875 12.752 154.811 13.192 154.011 14.072C153.211 14.936 152.811 16.096 152.811 17.552C152.811 19.104 153.227 20.32 154.059 21.2C154.907 22.064 156.067 22.496 157.539 22.496C158.547 22.496 159.395 22.24 160.083 21.728C160.787 21.216 161.299 20.48 161.619 19.52H156.411V16.496H165.339V20.312C165.035 21.336 164.515 22.288 163.779 23.168C163.059 24.048 162.139 24.76 161.019 25.304C159.899 25.848 158.635 26.12 157.227 26.12C155.563 26.12 154.075 25.76 152.763 25.04C151.467 24.304 150.451 23.288 149.715 21.992C148.995 20.696 148.635 19.216 148.635 17.552C148.635 15.888 148.995 14.408 149.715 13.112C150.451 11.8 151.467 10.784 152.763 10.064C154.059 9.328 155.539 8.96 157.203 8.96C159.219 8.96 160.915 9.448 162.291 10.424C163.683 11.4 164.603 12.752 165.051 14.48H160.515ZM173.708 26.168C172.476 26.168 171.372 25.968 170.396 25.568C169.42 25.168 168.636 24.576 168.044 23.792C167.468 23.008 167.164 22.064 167.132 20.96H171.5C171.564 21.584 171.78 22.064 172.148 22.4C172.516 22.72 172.996 22.88 173.588 22.88C174.196 22.88 174.676 22.744 175.028 22.472C175.38 22.184 175.556 21.792 175.556 21.296C175.556 20.88 175.412 20.536 175.124 20.264C174.852 19.992 174.508 19.768 174.092 19.592C173.692 19.416 173.116 19.216 172.364 18.992C171.276 18.656 170.388 18.32 169.7 17.984C169.012 17.648 168.42 17.152 167.924 16.496C167.428 15.84 167.18 14.984 167.18 13.928C167.18 12.36 167.748 11.136 168.884 10.256C170.02 9.36 171.5 8.912 173.324 8.912C175.18 8.912 176.676 9.36 177.812 10.256C178.948 11.136 179.556 12.368 179.636 13.952H175.196C175.164 13.408 174.964 12.984 174.596 12.68C174.228 12.36 173.756 12.2 173.18 12.2C172.684 12.2 172.284 12.336 171.98 12.608C171.676 12.864 171.524 13.24 171.524 13.736C171.524 14.28 171.78 14.704 172.292 15.008C172.804 15.312 173.604 15.64 174.692 15.992C175.78 16.36 176.66 16.712 177.332 17.048C178.02 17.384 178.612 17.872 179.108 18.512C179.604 19.152 179.852 19.976 179.852 20.984C179.852 21.944 179.604 22.816 179.108 23.6C178.628 24.384 177.924 25.008 176.996 25.472C176.068 25.936 174.972 26.168 173.708 26.168Z" fill="#725F32"/>
</svg>
